<?xml version="1.0" standalone="no"?><!-- Generator: Gravit.io --><svg xmlns="http://www.w3.org/2000/svg" xmlns:xlink="http://www.w3.org/1999/xlink" style="isolation:isolate" viewBox="0 0 82.205 93.543" width="82.205" height="93.543"><defs><clipPath id="_clipPath_vBQTqG8F0G8jSKGxsgaLdxKCgfYJPejB"><rect width="82.205" height="93.543"/></clipPath></defs><g clip-path="url(#_clipPath_vBQTqG8F0G8jSKGxsgaLdxKCgfYJPejB)"><path d=" M 41.246 1.421 C 19.245 1.421 1.417 9.348 1.417 19.146 C 1.417 28.944 19.245 36.874 41.246 36.874 C 63.248 36.874 81.076 28.944 81.076 19.146 C 81.076 9.348 63.248 1.417 41.246 1.417 L 41.246 1.421 Z  M 1.417 23.982 L 1.417 37.563 C 1.417 47.361 19.245 55.291 41.246 55.291 C 63.248 55.291 81.076 47.361 81.076 37.563 L 81.076 23.978 C 81.076 33.776 63.248 41.707 41.246 41.707 C 19.245 41.707 1.417 33.78 1.417 23.978 L 1.417 23.982 Z  M 1.417 42.399 L 1.417 55.98 C 1.417 65.778 19.245 73.709 41.246 73.709 C 63.248 73.709 81.076 65.778 81.076 55.98 L 81.076 42.396 C 81.076 52.194 63.248 60.124 41.246 60.124 C 19.245 60.124 1.417 52.197 1.417 42.396 L 1.417 42.399 Z  M 1.417 60.817 L 1.417 74.398 C 1.417 84.196 19.245 92.126 41.246 92.126 C 63.248 92.126 81.076 84.196 81.076 74.398 L 81.076 60.813 C 81.076 70.611 63.248 78.541 41.246 78.541 C 19.245 78.541 1.417 70.615 1.417 60.813 L 1.417 60.817 Z " fill="rgb(0,0,0)"/></g></svg>