<?xml version="1.0" standalone="no"?><!-- Generator: Gravit.io --><svg xmlns="http://www.w3.org/2000/svg" xmlns:xlink="http://www.w3.org/1999/xlink" style="isolation:isolate" viewBox="0 0 93.543 93.543" width="93.543" height="93.543"><defs><clipPath id="_clipPath_VzqGb1sMRTahxRIwZSJhX9Sk77joMQz6"><rect width="93.543" height="93.543"/></clipPath></defs><g clip-path="url(#_clipPath_VzqGb1sMRTahxRIwZSJhX9Sk77joMQz6)"><path d=" M 46.772 2.835 C 32.892 2.835 21.598 14.128 21.598 28.008 C 21.598 46.448 44.268 76.335 45.228 77.599 L 46.772 79.601 L 48.315 77.595 C 49.275 76.335 71.945 46.448 71.945 28.008 C 71.945 14.128 60.652 2.835 46.772 2.835 Z  M 46.772 20.262 C 51.051 20.262 54.517 23.728 54.517 28.008 C 54.517 32.287 51.051 35.753 46.772 35.753 C 42.492 35.753 39.026 32.287 39.026 28.008 C 39.026 23.728 42.492 20.262 46.772 20.262 Z  M 12.492 60.927 L 1.417 91.909 L 92.126 91.909 L 81.052 60.927 L 66.234 60.927 C 65.479 62.259 64.722 63.55 63.965 64.799 L 78.329 64.799 L 86.619 88.036 L 6.924 88.036 L 15.214 64.799 L 29.578 64.799 C 28.804 63.519 28.047 62.228 27.309 60.927 L 12.492 60.927 Z " fill="rgb(0,0,0)"/></g></svg>