<?xml version="1.0" standalone="no"?><!-- Generator: Gravit.io --><svg xmlns="http://www.w3.org/2000/svg" xmlns:xlink="http://www.w3.org/1999/xlink" style="isolation:isolate" viewBox="0 0 93.543 93.543" width="93.543" height="93.543"><defs><clipPath id="_clipPath_q40zrxSe0eVSLI0foCRLwnfbyMmdVTlE"><rect width="93.543" height="93.543"/></clipPath></defs><g clip-path="url(#_clipPath_q40zrxSe0eVSLI0foCRLwnfbyMmdVTlE)"><path d=" M 3.992 4.564 L 3.992 85.115 L 34.126 85.115 C 34.185 84.884 34.258 84.686 34.313 84.47 C 34.386 84.229 34.401 84.013 34.47 83.786 C 34.529 83.54 34.598 83.284 34.657 83.053 C 34.77 82.669 34.957 82.296 35.071 81.911 L 35.499 80.765 C 35.7 80.252 35.843 79.722 36.074 79.224 C 36.158 79.022 36.246 78.835 36.359 78.638 C 36.458 78.381 36.645 78.107 36.762 77.865 C 36.773 77.836 36.773 77.821 36.788 77.792 L 11.315 77.792 L 11.315 11.886 L 66.237 11.886 L 66.237 30.194 C 68.718 30.194 71.185 30.561 73.559 31.281 L 73.559 4.564 L 3.992 4.564 Z  M 18.638 19.209 L 18.638 26.532 L 33.284 26.532 L 33.284 19.209 L 18.638 19.209 Z  M 44.268 19.209 L 44.268 26.532 L 58.914 26.532 L 58.914 19.209 L 44.268 19.209 Z  M 18.638 33.855 L 18.638 41.178 L 33.284 41.178 L 33.284 33.855 L 18.638 33.855 Z  M 44.268 33.855 L 44.268 41.178 L 45.242 41.178 C 47.316 38.213 49.991 35.718 53.092 33.855 L 44.268 33.855 Z  M 66.237 37.516 C 56.168 37.516 47.929 45.755 47.929 55.823 C 47.929 61.389 50.503 66.335 54.45 69.711 C 46.245 73.988 40.607 82.57 40.607 92.438 L 47.929 92.438 C 47.929 82.285 56.083 74.131 66.237 74.131 C 76.39 74.131 84.544 82.285 84.544 92.438 L 91.866 92.438 C 91.866 82.57 86.228 73.984 78.023 69.711 C 81.97 66.335 84.544 61.389 84.544 55.823 C 84.544 45.755 76.305 37.516 66.237 37.516 Z  M 66.237 44.839 C 72.344 44.839 77.221 49.716 77.221 55.823 C 77.221 61.931 72.344 66.808 66.237 66.808 C 60.129 66.808 55.252 61.931 55.252 55.823 C 55.252 49.716 60.129 44.839 66.237 44.839 Z  M 18.638 48.501 L 18.638 55.823 L 33.284 55.823 L 33.284 48.501 L 18.638 48.501 Z  M 18.638 63.146 L 18.638 70.469 L 33.284 70.469 L 33.284 63.146 L 18.638 63.146 Z " fill="rgb(0,0,0)"/></g></svg>