<?xml version="1.0" standalone="no"?><!-- Generator: Gravit.io --><svg xmlns="http://www.w3.org/2000/svg" xmlns:xlink="http://www.w3.org/1999/xlink" style="isolation:isolate" viewBox="0 0 82.205 93.543" width="82.205" height="93.543"><defs><clipPath id="_clipPath_B0ehokbzdMYLSm4a81J6oZKBqDVxvIfT"><rect width="82.205" height="93.543"/></clipPath></defs><g clip-path="url(#_clipPath_B0ehokbzdMYLSm4a81J6oZKBqDVxvIfT)"><path d=" M 11.828 1.417 C 8.276 1.417 5.349 4.344 5.349 7.897 L 5.349 18.695 L 3.189 18.695 C 2.41 18.686 1.686 19.095 1.291 19.766 C 0.903 20.44 0.903 21.27 1.291 21.943 C 1.688 22.617 2.414 23.023 3.189 23.015 L 11.828 23.015 C 12.606 23.023 13.329 22.617 13.727 21.943 C 14.115 21.27 14.115 20.44 13.727 19.766 C 13.329 19.093 12.604 18.687 11.828 18.695 L 9.669 18.695 L 9.669 7.897 C 9.669 6.698 10.63 5.737 11.828 5.737 L 72.301 5.737 C 73.499 5.737 74.46 6.698 74.46 7.897 L 74.46 85.647 C 74.46 86.845 73.499 87.807 72.301 87.807 L 11.828 87.807 C 10.63 87.807 9.669 86.845 9.669 85.647 L 9.669 77.008 L 5.349 77.008 L 5.349 85.647 C 5.349 89.2 8.276 92.126 11.828 92.126 L 72.301 92.126 C 75.854 92.126 78.78 89.2 78.78 85.647 L 78.78 7.897 C 78.78 4.344 75.854 1.417 72.301 1.417 L 11.828 1.417 Z  M 45.304 23.015 C 39.71 23.015 35.458 25.125 33.182 28.414 C 31.182 31.273 31.065 34.867 32.151 38.226 C 31.629 39.018 31.266 39.979 31.426 41.221 C 31.603 42.647 32.017 43.77 32.717 44.621 C 32.955 44.916 33.307 44.899 33.603 45.102 C 33.814 46.104 34.041 47.117 34.439 47.962 C 34.709 48.534 34.996 49.059 35.324 49.53 C 35.408 49.631 35.585 49.724 35.661 49.834 C 35.644 50.409 35.611 51.303 35.594 52.627 C 35.4 53.031 34.927 53.529 33.745 54.095 C 32.488 54.711 30.726 55.292 28.879 56.052 C 27.039 56.819 25.083 57.773 23.463 59.359 C 21.843 60.952 20.644 63.24 20.467 66.075 C 20.431 66.671 20.645 67.255 21.057 67.686 C 21.463 68.125 22.029 68.369 22.627 68.369 L 63.662 68.369 C 64.26 68.369 64.828 68.125 65.232 67.686 C 65.644 67.255 65.856 66.671 65.822 66.075 C 65.644 63.24 64.446 60.952 62.826 59.359 C 61.206 57.773 59.25 56.819 57.409 56.052 C 55.563 55.292 53.801 54.711 52.544 54.095 C 51.371 53.538 50.906 53.048 50.703 52.644 L 50.703 49.536 C 50.924 49.208 51.092 48.972 51.496 48.229 C 51.943 47.394 52.306 46.273 52.602 45.15 C 52.93 44.929 53.31 44.938 53.574 44.618 C 54.271 43.765 54.686 42.644 54.863 41.219 C 54.98 40.273 54.88 39.37 54.518 38.578 C 54.466 38.47 54.289 38.426 54.222 38.316 C 54.459 37.64 54.88 37.042 54.956 36.275 C 55.116 34.714 54.982 33.137 54.559 31.625 C 54.12 30.04 53.31 28.438 51.935 27.198 C 50.889 26.252 49.438 25.703 47.844 25.434 L 47.237 24.211 C 46.874 23.476 46.124 23.012 45.304 23.015 Z  M 5.349 25.174 L 5.349 31.654 L 3.189 31.654 C 2.41 31.644 1.686 32.053 1.291 32.725 C 0.903 33.399 0.903 34.228 1.291 34.902 C 1.688 35.576 2.414 35.982 3.189 35.973 L 11.828 35.973 C 12.606 35.982 13.329 35.576 13.727 34.902 C 14.115 34.228 14.115 33.399 13.727 32.725 C 13.329 32.051 12.604 31.645 11.828 31.654 L 9.669 31.654 L 9.669 25.174 L 5.349 25.174 Z  M 44.09 27.572 L 44.451 28.295 C 44.814 29.029 45.565 29.494 46.384 29.494 C 47.684 29.494 48.425 29.857 49.04 30.405 C 49.65 30.962 50.12 31.805 50.401 32.803 C 50.686 33.796 50.753 34.919 50.66 35.83 C 50.567 36.74 50.213 37.45 50.213 37.45 C 49.843 37.902 49.673 38.486 49.741 39.066 C 49.81 39.646 50.111 40.174 50.576 40.528 C 50.585 40.588 50.593 40.554 50.576 40.69 C 50.477 41.474 50.306 41.718 50.265 41.785 C 49.403 42.022 48.779 42.748 48.678 43.634 C 48.628 44.13 48.181 45.286 47.699 46.173 C 47.22 47.059 46.771 47.692 46.771 47.692 C 46.518 48.055 46.383 48.488 46.384 48.931 L 46.384 53.294 C 46.384 53.553 46.434 53.817 46.52 54.061 C 47.287 56.078 49.008 57.192 50.669 57.983 C 52.323 58.786 54.12 59.367 55.757 60.043 C 57.386 60.726 58.828 61.492 59.807 62.456 C 60.211 62.844 60.239 63.568 60.506 64.049 L 25.782 64.049 C 26.052 63.568 26.078 62.842 26.482 62.456 C 27.46 61.492 28.903 60.726 30.542 60.043 C 32.177 59.367 33.966 58.793 35.629 57.991 C 37.292 57.192 39.002 56.078 39.771 54.061 C 39.855 53.817 39.905 53.555 39.905 53.294 C 39.905 51.335 39.998 49.024 39.998 49.024 C 40.032 48.183 39.574 47.399 38.825 47.016 C 38.816 46.998 38.86 47.042 38.851 47.016 C 38.658 46.74 38.491 46.446 38.354 46.139 C 37.998 45.379 37.685 44.377 37.609 43.634 C 37.511 42.753 36.886 42.021 36.032 41.785 C 35.989 41.72 35.812 41.482 35.713 40.681 L 35.713 40.673 C 35.695 40.537 35.719 40.537 35.737 40.504 C 36.527 39.887 36.786 38.806 36.363 37.897 C 35.173 35.366 35.359 32.835 36.724 30.878 C 37.939 29.131 40.41 27.865 44.088 27.569 L 44.09 27.572 Z  M 5.349 38.133 L 5.349 44.612 L 3.189 44.612 C 2.41 44.603 1.686 45.012 1.291 45.683 C 0.903 46.357 0.903 47.186 1.291 47.86 C 1.688 48.534 2.414 48.94 3.189 48.931 L 11.828 48.931 C 12.606 48.94 13.329 48.534 13.727 47.86 C 14.115 47.186 14.115 46.357 13.727 45.683 C 13.329 45.009 12.604 44.603 11.828 44.612 L 9.669 44.612 L 9.669 38.133 L 5.349 38.133 Z  M 5.349 51.091 L 5.349 57.57 L 3.189 57.57 C 2.41 57.561 1.686 57.97 1.291 58.642 C 0.903 59.315 0.903 60.145 1.291 60.819 C 1.688 61.492 2.414 61.898 3.189 61.89 L 11.828 61.89 C 12.606 61.898 13.329 61.492 13.727 60.819 C 14.115 60.145 14.115 59.315 13.727 58.642 C 13.329 57.968 12.604 57.562 11.828 57.57 L 9.669 57.57 L 9.669 51.091 L 5.349 51.091 Z  M 5.349 64.049 L 5.349 70.529 L 3.189 70.529 C 2.41 70.52 1.686 70.928 1.291 71.6 C 0.903 72.274 0.903 73.103 1.291 73.777 C 1.688 74.451 2.414 74.857 3.189 74.848 L 11.828 74.848 C 12.606 74.857 13.329 74.451 13.727 73.777 C 14.115 73.103 14.115 72.274 13.727 71.6 C 13.329 70.926 12.604 70.52 11.828 70.529 L 9.669 70.529 L 9.669 64.049 L 5.349 64.049 Z " fill="rgb(0,0,0)"/></g></svg>