<?xml version="1.0" encoding="iso-8859-1"?>
<!-- Generator: Adobe Illustrator 16.0.0, SVG Export Plug-In . SVG Version: 6.00 Build 0)  -->
<!DOCTYPE svg PUBLIC "-//W3C//DTD SVG 1.1//EN" "http://www.w3.org/Graphics/SVG/1.1/DTD/svg11.dtd">
<svg version="1.1" id="Capa_1" xmlns="http://www.w3.org/2000/svg" xmlns:xlink="http://www.w3.org/1999/xlink" x="0px" y="0px"
	 width="106.048px" height="106.048px" viewBox="0 0 106.048 106.048" style="enable-background:new 0 0 106.048 106.048;"
	 xml:space="preserve">
<g>
	<path style="fill:#010002;" d="M81.136,86.724l-16.207,3.075l-26.466-14.4l9.624-11.997l21.642,7.197L81.136,86.724z
		 M106.048,58.596v1.802l-17.067,5.4l-16.839,2.398l-21.652-7.198l-5.09-2.402h2.92c-0.704-6.442-1.631-11.31-2.086-17.699h-0.034
		c-0.005-0.196-0.233-4.474-0.28-6.294c-0.339-1.924-1.253-2.677-4.254-4.756c-1.654-1.067-2.889-1.442-3.568-1.427
		c-1.108,0-2.084,1.193-2.322,4.795c4.818,0.815,5.147,6.149,5.147,6.149c0.424,3.782-1.437,9.323-5.725,10.76
		c-7.923,2.641-7.102-12.632-2.63-16.285c0.116-4.406,1.326-8.43,5.53-8.601c1.655,0.013,3.345,0.696,5.303,1.937
		c0.927,0.562,1.68,1.134,2.343,1.719c-0.075-1.444-0.163-2.928-0.163-4.456c-0.01-3.198,0.497-6.69,3.335-9.173
		c1.468-1.33,3.128-2.024,4.74-2.009c4.216,0.202,6.861,3.86,8.384,7.583c1.786-0.773,4.013-1.157,6.561-0.271
		c6.504,2.247,10.051,13.618,7.301,17.567c-6.431,9.243-22.602-7.933-18.31-13.934c0,0,0.622-0.811,1.729-1.712
		c-1.258-3.304-3.78-6.258-5.665-6.061c-0.722,0.016-1.563,0.274-2.636,1.219c-1.797,1.58-2.255,3.842-2.265,6.786
		c0,2.079,0.256,4.396,0.256,6.708c0,1.214,0.078,2.273,0.111,3.457c0.295,2.068,0.318,3.658,0.265,5.838
		c0.45,6.359,3.026,11.576,3.73,18.155L106.048,58.596z M60.501,23.754l12.252,13.347c-2.196-9.465-9.963-14.737-9.963-14.737
		L60.501,23.754z M35.113,35.208l-2.19,0.896c0,0-1.098,7.469,0,11.353L35.113,35.208z M24.153,80.22l9.735-5.862l10.149-12.557
		l-3.171-3.205H18.447l-4.454,8.875L24.153,80.22z M35.509,78.2L18.255,89.938l2.302,2.854h39.685l-0.129-0.591L35.509,78.2z
		 M0,58.596v13.535l11.065-5.924l3.34-7.611H0z M75.347,71.096l10.714,15.519l19.987,4.682V73.55l-14.396-4.64L75.347,71.096z
		 M106.048,69.677v-6.275l-11.231,3.044L106.048,69.677z M11.327,70.547L0,75.947v16.845h8.313l12.319-10.107L11.327,70.547z
		 M70.66,92.792h25.896L84.17,89.799L70.66,92.792z"/>
</g>
<g>
</g>
<g>
</g>
<g>
</g>
<g>
</g>
<g>
</g>
<g>
</g>
<g>
</g>
<g>
</g>
<g>
</g>
<g>
</g>
<g>
</g>
<g>
</g>
<g>
</g>
<g>
</g>
<g>
</g>
</svg>
