<svg height="496pt" viewBox="0 0 496 496" width="496pt" xmlns="http://www.w3.org/2000/svg"><path d="m440 452.96875v-58.632812l1.167969-1.816407c11.167969-17.429687 21.832031-30.441406 33.535156-40.925781 13.535156-12.113281 21.296875-29.464844 21.296875-47.59375 0-15.753906-5.6875-30.558594-16-42.238281v-229.761719h-16v-32h-112v32h-16v64h-32v32h-16v32h-16v-96h-16v-32h-24v-32h-96v32h-24v32h-16v64h-64v32h-16v101.761719c-10.3125 11.679687-16 26.484375-16 42.238281 0 18.128906 7.761719 35.480469 21.296875 47.601562 11.710937 10.488282 22.367187 23.496094 33.535156 40.925782l1.167969 1.816406v58.625c-31.558594 10.039062-49.878906 19.023438-51.574219 19.871094l-4.425781 2.214844v20.945312h496v-20.945312l-4.425781-2.207032c-1.695313-.855468-20.015625-9.839844-51.574219-19.878906zm-104-23.089844v-34.925781c6.96875-8.144531 14.496094-14.863281 22.382812-19.96875 11.539063-7.464844 19.65625-18.671875 23.34375-31.449219 1.425782 1.792969 2.9375 3.527344 4.5625 5.183594 12.085938 12.320312 25.878907 27.160156 36.558594 43.824219l1.152344 1.800781v53.800781c-23.929688-6.832031-53.574219-13.632812-88-18.265625zm-167.894531-141.863281c2.855469 0 5.742187.296875 8.613281.894531 15.175781 3.167969 27.410156 15.539063 30.449219 30.777344 3.160156 15.871094-2.929688 31.496094-15.878907 40.777344-4.609374 3.304687-9.953124 7.351562-15.289062 12v-60.464844h-16v19.054688l-20.425781-10.207032-7.160157 14.3125 27.585938 13.785156v23.183594c-4.425781-3.960937-8.984375-7.535156-13.695312-10.585937-11.464844-7.398438-18.304688-19.941407-18.304688-33.542969 0-12.105469 5.390625-23.425781 14.800781-31.0625 7.175781-5.832031 16.078125-8.921875 25.304688-8.921875zm123.878906-2.824219c-5.359375 4.527344-9.960937 9.945313-13.320313 16.144532l-2.238281-4.488282-20.425781 10.207032v-19.054688h-16v78.808594c-6.40625-8.066406-12.929688-15.234375-18.847656-21.480469 2.925781-9.03125 3.6875-18.839844 1.710937-28.761719-2.464843-12.375-9.335937-23.300781-18.734375-31.277344 7.503906-17.144531 24.445313-28.96875 43.054688-29.28125 19.527344-.320312 37.207031 11.488282 44.800781 29.183594zm44.015625 63.753906 27.574219-13.792968-7.160157-14.3125-20.414062 10.214844v-19.054688h-16v60.472656c-5.335938-4.648437-10.671875-8.695312-15.289062-12-12.957032-9.28125-19.039063-24.90625-15.878907-40.777344 3.03125-15.238281 15.273438-27.605468 30.449219-30.773437 2.871094-.601563 5.757812-.898437 8.613281-.898437 9.226563 0 18.136719 3.089843 25.3125 8.921874 9.402344 7.628907 14.792969 18.949219 14.792969 31.054688 0 13.601562-6.839844 26.144531-18.304688 33.550781-4.710937 3.050781-9.269531 6.625-13.695312 10.585938zm-80-24 17.199219-8.601562c-.015625.070312-.046875.144531-.0625.222656-1.945313 9.761719-1.234375 19.417969 1.574219 28.328125-6.40625 6.289063-12.621094 13.3125-18.710938 21.335938zm-80 70.023438c7.535156-8.792969 16.65625-15.800781 24.609375-21.496094 5.109375-3.664062 9.367187-8.082031 12.871094-12.953125 8.625 9.328125 17.671875 20 25.367187 32.023438l1.152344 1.800781v29.734375c-22.648438.273437-44.039062 1.683594-64 3.867187zm80-.632812 1.167969-1.816407c8.222656-12.824219 16.480469-23.488281 25.03125-32.480469 3.570312 5.066407 7.921875 9.65625 13.199219 13.441407 7.953124 5.695312 17.066406 12.703125 24.609374 21.496093v32.96875c-19.960937-2.183593-41.351562-3.59375-64-3.867187v-29.742187zm208.03125-54.664063c-8.269531 7.40625-16.214844 16.175781-24.03125 26.496094v-41.230469l27.574219-13.792969-7.160157-14.3125-20.414062 10.222657v-19.054688h-16v78.785156c-8.625-10.875-17.855469-20.671875-26.289062-29.265625-9.296876-9.480469-14.160157-22.007812-13.671876-35.296875.898438-25.070312 22.050782-45.808594 47.152344-46.214844.265625-.007812.535156-.007812.808594-.007812 12.679688 0 24.601562 4.871094 33.65625 13.777344 9.246094 9.09375 14.34375 21.246094 14.34375 34.222656 0 13.585938-5.824219 26.59375-15.96875 35.671875zm-96.03125-323.671875h80v16h-80zm-16 32h112v200.640625c-9.929688-5.746094-21.238281-8.777344-33.078125-8.632813-5.128906.089844-10.113281.871094-14.921875 2.160157v-82.167969h-32v-32h-16v-32h-16zm-32 64h32v16h-32zm-16 32h64v16h-64zm96 32v72h1.449219c-15.945313 8.871094-27.914063 24.359375-31.9375 42.519531-1.917969-2.121093-3.953125-4.160156-6.214844-6-13.160156-10.695312-30.386719-14.777343-47.289063-11.261719-3.558593.742188-6.945312 1.964844-10.230468 3.382813-6.90625-14.59375-19.082032-25.769531-33.769532-31.746094v-68.894531zm-248-160h64v16h-64zm-24 32h112v16h-112zm-16 32h144v160.609375c-2.984375-.378906-6-.65625-9.078125-.601563-24.058594.398438-46.097656 15.097657-56.539063 36.703126-3.335937-1.453126-6.765624-2.695313-10.382812-3.453126-6.710938-1.402343-13.457031-1.554687-20-.609374v-112.648438h-16v-32h-32zm-64 64h80v16h-80zm96 32v101.441406c-3.992188 1.886719-7.792969 4.230469-11.296875 7.078125-2.261719 1.839844-4.296875 3.878907-6.214844 6-6.257812-28.222656-31.746093-50.023437-61.410156-50.511719-11.949219-.199218-23.199219 2.839844-33.078125 8.59375v-72.601562zm-112.03125 163.671875c-10.144531-9.078125-15.96875-22.085937-15.96875-35.671875 0-12.976562 5.097656-25.128906 14.34375-34.222656 9.046875-8.90625 20.976562-13.777344 33.65625-13.777344.273438 0 .542969 0 .824219.007812 25.097656.417969 46.246093 21.152344 47.152343 46.214844.480469 13.289063-4.375 25.824219-13.671874 35.296875-8.433594 8.59375-17.664063 18.390625-26.289063 29.265625v-78.785156h-16.015625v19.054688l-20.425781-10.207032-7.160157 14.3125 27.585938 13.785156v41.230469c-7.816406-10.328125-15.761719-19.085937-24.03125-26.503906zm40.03125 54.664063 1.144531-1.792969c10.679688-16.664063 24.480469-31.503907 36.566407-43.824219 1.625-1.65625 3.136718-3.390625 4.5625-5.183594 3.6875 12.777344 11.804687 23.984375 23.34375 31.449219 7.894531 5.105469 15.421874 11.832031 22.382812 19.96875v34.925781c-34.425781 4.632813-64.070312 11.433594-88 18.265625zm-43.839844 85.664062c33.152344-13.191406 113.582032-40 219.839844-40s186.6875 26.808594 219.839844 40zm0 0"/><path d="m48 192h16v16h-16zm0 0"/><path d="m80 192h16v16h-16zm0 0"/><path d="m112 192h16v16h-16zm0 0"/><path d="m128 96h16v16h-16zm0 0"/><path d="m176 96h16v16h-16zm0 0"/><path d="m224 96h16v16h-16zm0 0"/><path d="m176 128h16v16h-16zm0 0"/><path d="m224 128h16v16h-16zm0 0"/><path d="m176 160h16v16h-16zm0 0"/><path d="m224 160h16v16h-16zm0 0"/><path d="m176 192h16v16h-16zm0 0"/><path d="m224 192h16v16h-16zm0 0"/><path d="m384 64h16v16h-16zm0 0"/><path d="m384 96h16v16h-16zm0 0"/><path d="m416 64h16v16h-16zm0 0"/><path d="m416 96h16v16h-16zm0 0"/><path d="m384 240v-48h-96v48zm-16-16h-24v-16h24zm-64-16h24v16h-24zm0 0"/></svg>