<?xml version="1.0" encoding="iso-8859-1"?>
<!-- Generator: Adobe Illustrator 19.0.0, SVG Export Plug-In . SVG Version: 6.00 Build 0)  -->
<svg xmlns="http://www.w3.org/2000/svg" xmlns:xlink="http://www.w3.org/1999/xlink" version="1.1" id="Layer_1" x="0px" y="0px" viewBox="0 0 512 512" style="enable-background:new 0 0 512 512;" xml:space="preserve" width="512" height="512">
<g>
	<rect x="361" y="90" width="30" height="30"/>
	<rect x="482" y="360" width="30" height="30"/>
	<rect x="121" width="30" height="30"/>
	<rect x="421" y="300" width="30" height="30"/>
	<rect x="271" y="210" width="30" height="30"/>
	<path d="M442.489,406.216L401.62,392.71L355.272,300h-88.462l-30-90h-60l-28.55-85.635l-48.97-24.492   C94.179,97.324,91,92.183,91,86.455V75C91,33.647,56.353,0,15,0H0v512h512v-15C512,454.769,482.392,416.118,442.489,406.216z    M61,180h30v30H61V180z M91,420H61v-30h30V420z M121,300H91v-30h30V300z M211,450h-30v-30h30V450z M211,360h-30v-30h30V360z    M331,420h-30v-30h30V420z"/>
	<polygon points="258.959,0 181,35.728 181,78.545 216.728,150 295.272,150 334.252,72.041  "/>
	<polygon points="361,233.027 422.904,274.307 485.307,211.904 444.027,150 397.973,150 361,205.459  "/>
</g>















</svg>
