
<svg width="720px" height="350px" viewBox="0 0 720 350" version="1.1" xmlns="http://www.w3.org/2000/svg" xmlns:xlink="http://www.w3.org/1999/xlink">
    <!-- Generator: Sketch 51.1 (57501) - http://www.bohemiancoding.com/sketch -->
    <desc>Created with Sketch.</desc>
    <defs></defs>
    <g stroke="none" stroke-width="1" fill="none" fill-rule="evenodd" fill-opacity="0.05">
        <g transform="translate(0.000000, -185.000000)" fill="#86B9EC">
            <g transform="translate(0.000000, 185.000000)">
                <path d="M0,23.1089511 C53.06785,4.34140628 119.363423,-2.99482982 198.886719,1.10024276 C233.804688,2.89835254 444.966783,36.7854501 511.394531,39.3567125 C572.897442,41.737346 642.432599,36.3214255 720,23.1089511 L720,175 L0,175 L0,23.1089511 Z" id="Rectangle-6"></path>
                <path d="M0,198.108951 C53.06785,179.341406 119.363423,172.00517 198.886719,176.100243 C233.804688,177.898353 444.966783,211.78545 511.394531,214.356713 C572.897442,216.737346 642.432599,211.321426 720,198.108951 L720,350 L0,350 L0,198.108951 Z" id="Rectangle-6" transform="translate(360.000000, 262.500000) scale(-1, -1) translate(-360.000000, -262.500000) "></path>
            </g>
            <g transform="translate(360.000000, 360.000000) scale(1, -1) translate(-360.000000, -360.000000) translate(0.000000, 185.000000)">
                <path d="M0,23.1089511 C53.06785,4.34140628 119.363423,-2.99482982 198.886719,1.10024276 C233.804688,2.89835254 444.966783,36.7854501 511.394531,39.3567125 C572.897442,41.737346 642.432599,36.3214255 720,23.1089511 L720,175 L0,175 L0,23.1089511 Z" id="Rectangle-6"></path>
                <path d="M0,198.108951 C53.06785,179.341406 119.363423,172.00517 198.886719,176.100243 C233.804688,177.898353 444.966783,211.78545 511.394531,214.356713 C572.897442,216.737346 642.432599,211.321426 720,198.108951 L720,350 L0,350 L0,198.108951 Z" id="Rectangle-6" transform="translate(360.000000, 262.500000) scale(-1, -1) translate(-360.000000, -262.500000) "></path>
            </g>
        </g>
    </g>
</svg>
