<?xml version="1.0" encoding="iso-8859-1"?>
<!-- Generator: Adobe Illustrator 19.0.0, SVG Export Plug-In . SVG Version: 6.00 Build 0)  -->
<svg version="1.1" id="Capa_1" xmlns="http://www.w3.org/2000/svg" xmlns:xlink="http://www.w3.org/1999/xlink" x="0px" y="0px"
	 viewBox="0 0 380 380" style="enable-background:new 0 0 380 380;" xml:space="preserve">
<g>
	<g>
		<path d="M15.6,117.6h349.2c10.4,0,15.2-7.6,15.2-15.2c-0.4-10.8-8-16.4-17.6-16.4h-5.2c-9.2-1.2-13.6-5.2-15.2-10
			c-0.8-3.2-0.8-6.8,0.4-10c1.2-3.2,3.2-6,6-8c3.6-2.4,8-2.8,13.2,0.4c0.8,0.4,1.6,0.8,2.4,0.8c2.4,0,4-2,4-4.4
			c0-9.6-3.6-17.2-8.4-22.4c-3.2-3.2-6.8-5.6-10.8-6.8c-4-1.6-8.4-2-12.8-2c-11.6,0.4-24.8,5.6-35.6,16c-3.6,3.6-8,8.4-12.4,14
			c-11.6,14-26.4,31.2-38.4,32.8h-8c-9.2-1.2-13.6-5.2-15.2-10c-0.8-3.2-0.8-6.8,0.4-10c1.2-3.2,3.2-6,6-8c3.6-2.4,8-2.8,13.2,0.4
			c0.8,0.4,1.6,0.8,2.4,0.8c2.4,0,4-2,4-4.4c0-9.6-3.6-17.2-8.4-22.4c-3.2-3.2-6.8-5.6-10.8-6.8c-4-1.6-8.4-2-12.8-2
			c-11.6,0.4-24.8,5.6-35.6,16c-3.6,3.6-8,8.4-12.4,14C160.8,68,146,85.2,134,86.8h-8c-9.2-1.2-13.6-5.2-15.2-10
			c-0.8-3.2-0.8-6.8,0.4-10c1.2-3.2,3.2-6.4,6-8c3.6-2.4,8-2.8,13.2,0.4c0.8,0.4,1.6,0.8,2.4,0.8c2.4,0,4-2,4-4.4
			c0-9.6-3.6-17.2-8.4-22.4c-2.8-3.2-6.4-5.6-10.4-6.8c-4-1.6-8.4-2-12.8-2c-11.6,0.4-24.8,5.6-35.6,16c-3.6,3.6-8,8.4-12.4,14
			c-11.6,14-26.4,31.2-38.4,32.8h-3.2c-4,0-8,1.6-10.8,4.4C2,94.4,0.4,98,0.4,102.4c0,4,1.6,8,4.4,10.8
			C7.6,116,11.2,117.6,15.6,117.6z"/>
		<path d="M362.4,324.8h-5.2c-9.2-1.2-13.6-5.2-15.2-10c-0.8-3.2-0.8-6.8,0.4-10c1.2-3.2,3.2-6,6-8c3.6-2.4,8-2.8,13.2,0.4
			c0.8,0.4,1.6,0.8,2.4,0.8c2.4,0,4-2,4-4.4c0-9.6-3.6-17.2-8.4-22.4c-3.2-3.2-6.8-5.6-10.8-6.8c-4-1.6-8.4-2-12.8-2
			c-11.6,0.4-24.8,5.6-35.6,16c-3.6,3.6-8,8.4-12.4,14c-11.6,14-26.4,31.2-38.4,32.8h-8c-9.2-1.2-13.6-5.2-15.2-10
			c-0.8-3.2-0.8-6.8,0.4-10c1.2-3.2,3.2-6,6-8c3.6-2.4,8-2.8,13.2,0.4c0.8,0.4,1.6,0.8,2.4,0.8c2.4,0,4-2,4-4.4
			c0-9.6-3.6-17.2-8.4-22.4c-3.2-3.2-6.8-5.6-10.8-6.8c-4-1.6-8.4-2-12.8-2c-11.6,0.4-24.8,5.6-35.6,16c-3.6,3.6-8,8.4-12.4,14
			c-11.6,14-26.4,31.2-38.4,32.8h-8c-9.2-1.2-13.6-5.2-15.2-10c-0.8-3.2-0.8-6.8,0.4-10c1.2-3.2,3.2-6.4,6-8c3.6-2.4,8-2.8,13.2,0.4
			c0.8,0.4,1.6,0.8,2.4,0.8c2.4,0,4-2,4-4.4c0-9.6-3.6-17.2-8.4-22.4c-3.2-3.2-6.8-5.6-10.8-6.8c-4-1.6-8.4-2-12.8-2
			c-11.6,0.4-24.8,5.6-35.6,16c-3.6,3.6-8,8.4-12.4,14c-11.6,14-26.4,31.2-38.4,32.8h-3.2c-4,0-8,1.6-10.8,4.4S0,336.8,0,341.2
			c0,4,1.6,8,4.4,10.8s6.4,4.4,10.8,4.4h349.2c10.4,0,15.2-7.6,15.2-15.2C379.6,330.4,372,324.8,362.4,324.8z"/>
		<path d="M362.4,206.4h-5.2c-9.2-1.2-13.6-5.2-15.2-10c-0.8-3.2-0.8-6.8,0.4-10c1.2-3.2,3.2-6,6-8c3.6-2.4,8-2.8,13.2,0.4
			c0.8,0.4,1.6,0.8,2.4,0.8c2.4,0,4-2,4-4.4c0-9.6-3.6-17.2-8.4-22.4c-3.2-3.2-6.8-5.6-10.8-6.8c-4-1.6-8.4-2-12.8-2
			c-11.6,0.4-24.8,5.6-35.6,16c-3.6,3.6-8,8.4-12.4,14c-11.6,14-26.4,31.2-38.4,32.8h-8c-9.2-1.2-13.6-5.2-15.2-10
			c-0.8-3.2-0.8-6.8,0.4-10c1.2-3.2,3.2-6,6-8c3.6-2.4,8-2.8,13.2,0.4c0.8,0.4,1.6,0.8,2.4,0.8c2.4,0,4-2,4-4.4
			c0-9.6-3.6-17.2-8.4-22.4c-3.2-3.2-6.8-5.6-10.8-6.8c-4-1.6-8.4-2-12.8-2c-11.6,0.4-24.8,5.6-35.6,16c-3.6,3.6-8,8.4-12.4,14
			c-11.6,14-26.4,31.2-38.4,32.8h-8c-9.2-1.2-13.6-5.2-15.2-10c-0.8-3.2-0.8-6.8,0.4-10c1.2-3.2,3.2-6.4,6-8c3.6-2.4,8-2.8,13.2,0.4
			c0.8,0.4,1.6,0.8,2.4,0.8c2.4,0,4-2,4-4.4c0-9.6-3.6-17.2-8.4-22.4c-3.2-3.2-6.8-5.6-10.8-6.8c-4-1.6-8.4-2-12.8-2
			c-11.6,0.4-24.8,5.6-35.6,16c-3.6,3.6-8,8.4-12.4,14c-11.6,14-26.4,31.2-38.4,32.8h-3.2c-4,0-8,1.6-10.8,4.4S0,218.4,0,222.8
			c0,4,1.6,8,4.4,10.8s6.4,4.4,10.8,4.4h349.2c10.4,0,15.2-7.6,15.2-15.2C379.6,212,372,206.4,362.4,206.4z"/>
	</g>
</g>
<g>
</g>
<g>
</g>
<g>
</g>
<g>
</g>
<g>
</g>
<g>
</g>
<g>
</g>
<g>
</g>
<g>
</g>
<g>
</g>
<g>
</g>
<g>
</g>
<g>
</g>
<g>
</g>
<g>
</g>
</svg>
