<?xml version="1.0" standalone="no"?><!-- Generator: Gravit.io --><svg xmlns="http://www.w3.org/2000/svg" xmlns:xlink="http://www.w3.org/1999/xlink" style="isolation:isolate" viewBox="0 0 82.205 93.543" width="82.205" height="93.543"><defs><clipPath id="_clipPath_M11jt70DY0CYaPI0QwQgODF3SLPgoNo1"><rect width="82.205" height="93.543"/></clipPath></defs><g clip-path="url(#_clipPath_M11jt70DY0CYaPI0QwQgODF3SLPgoNo1)"><path d=" M 10.828 1.417 C 7.26 1.417 4.349 4.329 4.349 7.897 L 4.349 18.695 L 2.189 18.695 C 1.41 18.686 0.686 19.095 0.291 19.766 C -0.097 20.44 -0.097 21.27 0.291 21.943 C 0.688 22.617 1.414 23.023 2.189 23.015 L 10.828 23.015 C 11.586 23.025 12.293 22.637 12.692 21.993 C 12.877 22.302 12.979 22.654 12.988 23.015 C 12.988 24.202 12.016 25.174 10.828 25.174 L 4.349 25.174 L 4.349 31.654 L 2.189 31.654 C 1.41 31.644 0.686 32.053 0.291 32.725 C -0.097 33.399 -0.097 34.228 0.291 34.902 C 0.688 35.576 1.414 35.982 2.189 35.973 L 10.828 35.973 C 11.586 35.983 12.293 35.595 12.692 34.951 C 12.877 35.261 12.979 35.613 12.988 35.973 C 12.988 37.161 12.016 38.133 10.828 38.133 L 4.349 38.133 L 4.349 44.612 L 2.189 44.612 C 1.41 44.603 0.686 45.012 0.291 45.683 C -0.097 46.357 -0.097 47.186 0.291 47.86 C 0.688 48.534 1.414 48.94 2.189 48.931 L 10.828 48.931 C 11.586 48.941 12.293 48.554 12.692 47.91 C 12.877 48.219 12.979 48.571 12.988 48.931 C 12.988 50.124 12.021 51.091 10.828 51.091 L 4.349 51.091 L 4.349 57.57 L 2.189 57.57 C 1.41 57.561 0.686 57.97 0.291 58.642 C -0.097 59.315 -0.097 60.145 0.291 60.819 C 0.688 61.492 1.414 61.898 2.189 61.89 L 10.828 61.89 C 11.586 61.9 12.293 61.512 12.692 60.868 C 12.877 61.178 12.979 61.529 12.988 61.89 C 12.988 63.083 12.021 64.049 10.828 64.049 L 4.349 64.049 L 4.349 70.529 L 2.189 70.529 C 1.41 70.52 0.686 70.928 0.291 71.6 C -0.097 72.274 -0.097 73.103 0.291 73.777 C 0.688 74.451 1.414 74.857 2.189 74.848 L 10.828 74.848 C 11.586 74.858 12.293 74.47 12.692 73.827 C 12.877 74.136 12.979 74.488 12.988 74.848 C 12.988 76.041 12.021 77.008 10.828 77.008 L 4.349 77.008 L 4.349 85.647 C 4.349 89.215 7.26 92.126 10.828 92.126 L 71.301 92.126 C 74.869 92.126 77.78 89.215 77.78 85.647 L 77.78 7.897 C 77.78 4.329 74.869 1.417 71.301 1.417 L 10.828 1.417 Z  M 44.304 25.174 L 45.384 27.334 C 52.446 27.334 52.757 36.53 50.885 38.809 C 51.39 38.951 51.872 39.718 51.721 40.951 C 51.433 43.236 50.455 43.819 49.831 43.869 C 49.593 46.005 47.544 48.931 47.544 48.931 L 47.544 53.294 C 49.39 58.169 62.087 56.804 62.662 66.209 L 21.627 66.209 C 22.201 56.804 34.905 58.169 36.745 53.294 C 36.745 51.268 36.847 48.931 36.847 48.931 L 36.745 48.931 C 35.952 48.534 34.693 46.005 34.458 43.869 C 33.834 43.819 32.855 43.236 32.568 40.951 C 32.417 39.72 33.033 39.029 33.404 38.809 C 30.467 32.546 34.164 25.174 44.304 25.174 Z " fill="rgb(0,0,0)"/></g></svg>