<?xml version="1.0" standalone="no"?><!-- Generator: Gravit.io --><svg xmlns="http://www.w3.org/2000/svg" xmlns:xlink="http://www.w3.org/1999/xlink" style="isolation:isolate" viewBox="0 0 73.701 93.543" width="73.701" height="93.543"><defs><clipPath id="_clipPath_iFIjq6sUWo08eGTwYOMb0nSPQPaOcch1"><rect width="73.701" height="93.543"/></clipPath></defs><g clip-path="url(#_clipPath_iFIjq6sUWo08eGTwYOMb0nSPQPaOcch1)"><path d=" M 15.987 1.835 C 8.301 1.835 2.031 8.104 2.031 15.79 L 2.031 78.588 C 2.031 86.274 8.301 92.543 15.987 92.543 L 57.852 92.543 C 65.538 92.543 71.807 86.274 71.807 78.588 L 71.807 29.745 C 71.807 26.036 68.413 22.523 62.321 16.554 C 61.477 15.72 60.563 14.796 59.705 13.937 C 58.846 13.079 57.922 12.273 57.088 11.429 C 51.122 5.337 47.606 1.835 43.897 1.835 L 15.987 1.835 Z  M 15.987 8.812 L 41.388 8.812 C 43.911 9.454 43.897 12.475 43.897 15.574 L 43.897 26.256 C 43.897 28.175 45.467 29.745 47.386 29.745 L 57.852 29.745 C 61.327 29.745 64.83 29.759 64.83 33.234 L 64.83 78.588 C 64.83 82.442 61.706 85.566 57.852 85.566 L 15.987 85.566 C 12.142 85.566 9.009 82.443 9.009 78.588 L 9.009 15.79 C 9.009 11.945 12.142 8.812 15.987 8.812 Z  M 36.919 33.234 C 29.209 33.234 22.964 39.479 22.964 47.189 C 22.964 55.953 29.942 57.655 29.942 64.633 L 43.897 64.633 C 43.897 57.655 50.875 55.771 50.875 47.189 C 50.875 39.479 44.63 33.234 36.919 33.234 Z  M 32.558 43.7 L 41.28 43.7 C 43.039 43.7 44.197 45.417 43.681 47.081 L 40.408 57.655 L 40.408 47.953 C 40.389 47.539 40.058 47.208 39.644 47.189 L 34.198 47.189 C 33.784 47.208 33.453 47.539 33.434 47.953 L 33.434 57.655 L 30.162 47.081 C 29.645 45.417 30.817 43.7 32.562 43.7 L 32.558 43.7 Z  M 29.942 68.122 L 29.942 68.558 C 29.942 70.222 31.33 71.611 32.994 71.611 L 33.431 71.611 C 33.431 73.529 35 75.099 36.919 75.099 C 38.838 75.099 40.408 73.529 40.408 71.611 L 40.844 71.611 C 42.523 71.594 43.88 70.237 43.897 68.558 L 43.897 68.122 L 29.942 68.122 Z " fill="rgb(0,0,0)"/></g></svg>