<?xml version="1.0" standalone="no"?><!-- Generator: Gravit.io --><svg xmlns="http://www.w3.org/2000/svg" xmlns:xlink="http://www.w3.org/1999/xlink" style="isolation:isolate" viewBox="0 0 73.701 93.543" width="73.701" height="93.543"><defs><clipPath id="_clipPath_0hUUQA7gSOt40I0ljr3CmVBi2Ncbx1E0"><rect width="73.701" height="93.543"/></clipPath></defs><g clip-path="url(#_clipPath_0hUUQA7gSOt40I0ljr3CmVBi2Ncbx1E0)"><path d=" M 47.741 66.797 C 47.741 69.005 49.548 70.812 51.757 70.812 C 53.965 70.812 55.772 69.005 55.772 66.797 C 55.772 64.589 53.965 62.782 51.757 62.782 C 49.548 62.782 47.741 64.589 47.741 66.797 Z  M 23.617 42.673 C 25.825 42.673 27.632 40.866 27.632 38.658 C 27.632 36.449 25.825 34.643 23.617 34.643 C 21.409 34.643 19.602 36.449 19.602 38.658 C 19.569 40.866 21.375 42.673 23.617 42.673 Z  M 13.88 4.261 L 13.88 2.02 C 13.88 1.819 13.914 1.618 13.947 1.417 L 3.341 1.417 C 1.77 1.417 0.497 2.691 0.497 4.261 L 0.497 89.282 C 0.497 90.855 1.768 92.126 3.341 92.126 L 70.36 92.126 C 71.933 92.126 73.204 90.855 73.204 89.282 L 73.204 4.261 C 73.204 2.689 71.933 1.417 70.36 1.417 L 61.393 1.417 C 61.426 1.618 61.46 1.819 61.46 2.02 L 61.46 9.18 C 61.46 13.295 58.114 16.641 53.998 16.641 L 21.375 16.641 C 17.26 16.641 13.914 13.295 13.914 9.18 L 13.914 4.261 L 13.88 4.261 L 13.88 4.261 Z  M 25.324 56.625 C 25.156 56.692 24.989 56.692 24.855 56.692 C 24.115 56.682 23.467 56.195 23.249 55.488 C 22.981 54.584 23.483 53.681 24.387 53.413 C 25.274 53.155 26.203 53.664 26.461 54.551 C 26.72 55.438 26.211 56.367 25.324 56.625 L 25.324 56.625 Z  M 28.402 58.566 C 28.937 59.336 28.736 60.373 28 60.908 C 27.699 61.109 27.365 61.209 27.03 61.209 C 26.495 61.209 25.993 60.942 25.658 60.507 C 25.123 59.737 25.324 58.7 26.06 58.165 C 26.829 57.629 27.867 57.797 28.402 58.566 L 28.402 58.566 Z  M 25.391 51.272 C 25.089 51.573 24.654 51.774 24.219 51.774 C 23.784 51.774 23.349 51.607 23.048 51.272 C 22.747 50.971 22.546 50.536 22.546 50.101 C 22.546 49.666 22.714 49.231 23.048 48.93 C 23.383 48.629 23.784 48.428 24.219 48.428 C 24.654 48.428 25.089 48.595 25.391 48.93 C 25.692 49.264 25.892 49.666 25.892 50.101 C 25.892 50.536 25.692 50.937 25.391 51.272 Z  M 59.787 66.797 C 59.787 71.214 56.173 74.827 51.757 74.827 C 47.34 74.827 43.726 71.214 43.726 66.797 C 43.726 62.38 47.34 58.767 51.757 58.767 C 56.173 58.767 59.787 62.38 59.787 66.797 Z  M 40.514 35.011 C 39.745 34.219 39.745 32.959 40.514 32.167 C 41.306 31.397 42.566 31.397 43.358 32.167 L 47.942 36.751 L 52.526 32.167 C 53.318 31.397 54.578 31.397 55.37 32.167 C 56.139 32.959 56.139 34.219 55.37 35.011 L 50.786 39.595 L 55.37 44.179 C 56.139 44.971 56.139 46.231 55.37 47.023 C 54.969 47.424 54.467 47.625 53.965 47.625 C 53.463 47.625 52.928 47.424 52.56 47.023 L 47.976 42.439 L 43.392 47.023 C 42.99 47.424 42.488 47.625 41.986 47.625 C 41.485 47.625 40.949 47.424 40.581 47.023 C 39.812 46.231 39.812 44.971 40.581 44.179 L 45.165 39.595 L 40.514 35.011 L 40.514 35.011 Z  M 38.707 65.024 C 39.009 64.723 39.444 64.522 39.878 64.522 C 40.313 64.522 40.748 64.689 41.05 65.024 C 41.351 65.325 41.551 65.76 41.551 66.195 C 41.551 66.63 41.384 67.065 41.05 67.366 C 40.748 67.667 40.313 67.868 39.878 67.868 C 39.444 67.868 39.009 67.701 38.707 67.366 C 38.406 67.065 38.206 66.63 38.206 66.195 C 38.206 65.76 38.373 65.325 38.707 65.024 Z  M 33.354 64.89 C 33.641 64.013 34.584 63.534 35.462 63.819 C 36.332 64.12 36.8 65.057 36.533 65.927 C 36.298 66.63 35.629 67.065 34.926 67.065 C 34.759 67.065 34.592 67.031 34.391 66.964 C 33.555 66.697 33.053 65.76 33.354 64.89 L 33.354 64.89 Z  M 31.848 64.12 C 31.514 64.555 31.012 64.79 30.51 64.79 C 30.175 64.79 29.807 64.689 29.506 64.455 C 28.77 63.92 28.603 62.849 29.171 62.113 C 29.74 61.377 30.777 61.209 31.514 61.778 C 32.25 62.314 32.417 63.351 31.848 64.12 Z  M 23.617 30.627 C 28.034 30.627 31.647 34.241 31.647 38.658 C 31.647 43.074 28.034 46.688 23.617 46.688 C 19.201 46.688 15.587 43.074 15.587 38.658 C 15.553 34.241 19.167 30.627 23.617 30.627 L 23.617 30.627 Z  M 17.561 4.261 L 17.561 9.18 C 17.561 11.288 19.267 12.961 21.342 12.961 L 53.965 12.961 C 56.073 12.961 57.746 11.254 57.746 9.18 L 57.746 2.02 L 17.561 2.02 L 17.561 4.261 L 17.561 4.261 Z " fill="rgb(0,0,0)"/></g></svg>