<?xml version="1.0" standalone="no"?><!-- Generator: Gravit.io --><svg xmlns="http://www.w3.org/2000/svg" xmlns:xlink="http://www.w3.org/1999/xlink" style="isolation:isolate" viewBox="0 0 93.543 93.543" width="93.543" height="93.543"><defs><clipPath id="_clipPath_Pxrgfl1WwpCpMAqgcu72Q9HK4bRRIqxM"><rect width="93.543" height="93.543"/></clipPath></defs><g clip-path="url(#_clipPath_Pxrgfl1WwpCpMAqgcu72Q9HK4bRRIqxM)"><path d=" M 1.417 11.136 L 1.417 69.449 L 14.376 69.449 L 14.376 82.407 L 92.126 82.407 L 92.126 24.094 L 79.168 24.094 L 79.168 11.136 L 1.417 11.136 Z  M 7.897 17.615 L 72.688 17.615 L 72.688 62.97 L 7.897 62.97 L 7.897 17.615 Z  M 14.376 24.094 L 14.376 56.49 L 66.209 56.49 L 66.209 24.094 L 14.376 24.094 Z  M 20.855 30.574 L 59.73 30.574 L 59.73 50.011 L 20.855 50.011 L 20.855 30.574 Z  M 79.168 30.574 L 85.647 30.574 L 85.647 75.928 L 20.855 75.928 L 20.855 69.449 L 79.168 69.449 L 79.168 30.574 Z " fill="rgb(0,0,0)"/></g></svg>