<?xml version="1.0" standalone="no"?><!-- Generator: Gravit.io --><svg xmlns="http://www.w3.org/2000/svg" xmlns:xlink="http://www.w3.org/1999/xlink" style="isolation:isolate" viewBox="0 0 93.543 93.543" width="93.543" height="93.543"><defs><clipPath id="_clipPath_P9ObL7wa2ygJG0Ev2biR3WMu8HxbuRMr"><rect width="93.543" height="93.543"/></clipPath></defs><g clip-path="url(#_clipPath_P9ObL7wa2ygJG0Ev2biR3WMu8HxbuRMr)"><g id="Group"><path d=" M 8.79 91.709 L 83.689 91.709 C 84.837 91.709 85.776 90.769 85.776 89.622 L 85.776 22.81 C 85.776 22.731 85.776 22.653 85.75 22.575 L 85.75 22.523 C 85.724 22.444 85.724 22.366 85.698 22.262 C 85.698 22.236 85.698 22.236 85.672 22.21 C 85.645 22.131 85.619 22.053 85.593 22.001 C 85.593 21.975 85.593 21.975 85.567 21.949 C 85.541 21.871 85.489 21.792 85.437 21.714 C 85.437 21.688 85.411 21.688 85.411 21.662 C 85.359 21.584 85.306 21.505 85.254 21.453 L 68.01 1.73 C 67.958 1.652 67.879 1.6 67.801 1.522 C 67.775 1.496 67.749 1.496 67.749 1.47 C 67.697 1.417 67.619 1.365 67.566 1.339 C 67.54 1.339 67.54 1.313 67.514 1.313 C 67.436 1.261 67.358 1.235 67.279 1.183 C 67.253 1.183 67.227 1.157 67.227 1.157 C 67.149 1.13 67.097 1.104 67.019 1.078 C 66.992 1.078 66.966 1.078 66.94 1.052 C 66.862 1.026 66.758 1.026 66.679 1 L 8.79 1 C 7.642 1 6.703 1.939 6.703 3.087 L 6.703 89.596 C 6.703 90.769 7.642 91.709 8.79 91.709 L 8.79 91.709 Z  M 68.532 8.644 L 79.097 20.723 L 68.532 20.723 L 68.532 8.644 Z  M 10.877 5.174 L 64.358 5.174 L 64.358 22.81 C 64.358 23.958 65.297 24.897 66.445 24.897 L 81.602 24.897 L 81.602 87.508 L 10.877 87.508 L 10.877 5.174 L 10.877 5.174 Z  M 71.245 42.115 L 46.722 23.514 C 46.064 23.012 45.15 23.023 44.504 23.54 L 34.33 31.445 L 34.33 26.566 C 34.33 25.549 33.521 24.74 32.504 24.74 L 26.086 24.74 C 25.069 24.74 24.26 25.549 24.26 26.566 L 24.26 39.271 L 20.582 42.115 C 20.139 42.46 19.879 42.989 19.877 43.55 L 19.877 49.863 C 19.877 50.872 20.695 51.689 21.703 51.689 C 22.095 51.689 22.486 51.559 22.825 51.298 L 23.712 50.62 L 23.712 69.873 C 23.712 69.899 23.712 69.925 23.738 69.977 C 23.738 70.003 23.764 70.055 23.764 70.082 C 23.764 70.108 23.764 70.134 23.79 70.134 C 23.79 70.186 23.816 70.212 23.843 70.264 C 23.843 70.264 23.843 70.29 23.869 70.29 C 23.895 70.342 23.895 70.369 23.921 70.421 L 23.921 70.447 C 23.947 70.499 23.973 70.551 23.999 70.577 C 24.025 70.629 24.051 70.682 24.103 70.708 C 24.13 70.76 24.182 70.786 24.208 70.838 L 67.645 70.838 C 67.671 70.786 67.723 70.76 67.749 70.708 C 67.775 70.655 67.801 70.629 67.853 70.577 C 67.879 70.525 67.906 70.499 67.932 70.447 L 67.932 70.421 C 67.958 70.369 67.984 70.342 67.984 70.29 C 67.984 70.29 67.984 70.264 68.01 70.264 C 68.036 70.212 68.036 70.186 68.062 70.134 C 68.062 70.108 68.062 70.082 68.088 70.082 C 68.088 70.055 68.114 70.003 68.114 69.977 C 68.114 69.951 68.114 69.925 68.14 69.873 L 68.14 50.646 L 69.027 51.324 C 69.581 51.739 70.321 51.806 70.94 51.497 C 71.558 51.187 71.949 50.555 71.949 49.863 L 71.949 43.576 C 71.975 43.002 71.714 42.454 71.245 42.115 L 71.245 42.115 Z  M 27.912 28.393 L 30.678 28.393 L 30.678 34.289 L 27.912 36.428 L 27.912 28.393 L 27.912 28.393 Z  M 51.209 67.551 L 40.669 67.551 L 40.669 51.742 L 51.209 51.742 L 51.209 67.551 Z  M 64.488 67.812 L 55.357 67.812 L 55.357 49.654 C 55.357 48.507 54.418 47.567 53.27 47.567 L 38.556 47.567 C 37.408 47.567 36.469 48.507 36.469 49.654 L 36.469 67.812 L 27.338 67.812 L 27.338 47.802 L 45.6 33.61 L 64.462 47.907 L 64.462 67.812 L 64.488 67.812 L 64.488 67.812 Z  M 68.323 46.211 L 46.722 29.854 C 46.383 29.619 46.018 29.488 45.626 29.488 C 45.235 29.488 44.844 29.619 44.504 29.88 L 23.556 46.185 L 23.556 44.489 L 45.652 27.297 L 68.349 44.489 L 68.349 46.211 L 68.323 46.211 L 68.323 46.211 Z " fill="rgb(10,11,12)"/></g></g></svg>