<?xml version="1.0" standalone="no"?><!-- Generator: Gravit.io --><svg xmlns="http://www.w3.org/2000/svg" xmlns:xlink="http://www.w3.org/1999/xlink" style="isolation:isolate" viewBox="0 0 90.709 93.543" width="90.709" height="93.543"><defs><clipPath id="_clipPath_kKrauoZT4aavvKEXIvfk4N32MxoTeuiv"><rect width="90.709" height="93.543"/></clipPath></defs><g clip-path="url(#_clipPath_kKrauoZT4aavvKEXIvfk4N32MxoTeuiv)"><g id="Service"><path d=" M 18.59 73.388 L 75.586 73.388 C 75.586 73.388 75.586 73.388 75.586 73.388 C 79.589 73.388 83.439 71.798 86.265 68.963 C 89.1 66.137 90.699 62.297 90.709 58.284 C 90.709 54.826 89.521 51.474 87.347 48.783 C 85.163 46.092 82.127 44.234 78.746 43.515 C 78.516 41.475 77.693 39.541 76.39 37.96 C 75.365 36.734 74.101 35.748 72.665 35.068 C 71.257 34.378 69.705 34.014 68.134 33.995 C 67.521 33.995 66.909 34.034 66.305 34.101 C 64.026 29.886 60.645 26.362 56.527 23.91 C 52.399 21.449 47.696 20.156 42.898 20.156 C 37.458 20.156 32.142 21.822 27.669 24.925 C 23.609 27.76 20.41 31.668 18.456 36.217 C 13.571 36.256 8.898 38.209 5.45 41.667 C 1.963 45.143 0 49.875 0 54.798 C 0 59.73 1.963 64.461 5.44 67.948 C 8.926 71.424 13.658 73.388 18.59 73.388 Z  M 42.879 26.467 L 42.917 26.467 C 46.911 26.467 50.809 27.645 54.132 29.858 C 57.456 32.08 60.051 35.221 61.583 38.909 C 62.072 40.077 63.221 40.853 64.495 40.862 C 64.821 40.862 65.146 40.805 65.462 40.709 C 66.315 40.441 67.196 40.297 68.096 40.307 C 68.728 40.307 69.351 40.46 69.925 40.738 C 70.529 41.025 71.065 41.447 71.496 41.964 C 72.128 42.74 72.473 43.707 72.473 44.712 C 72.473 45.057 72.444 45.402 72.377 45.737 C 72.368 45.804 72.358 45.871 72.349 45.938 L 72.329 46.149 C 72.329 46.197 72.329 46.254 72.329 46.302 C 72.329 47.059 72.588 47.787 73.067 48.362 C 73.661 49.08 74.551 49.492 75.49 49.492 L 75.605 49.492 C 77.932 49.492 80.164 50.421 81.802 52.068 C 83.439 53.706 84.368 55.937 84.359 58.265 C 84.359 60.592 83.439 62.824 81.792 64.471 C 80.145 66.118 77.913 67.038 75.586 67.038 L 18.59 67.038 C 15.334 67.038 12.211 65.754 9.913 63.456 C 7.614 61.157 6.321 58.035 6.321 54.778 C 6.321 51.532 7.614 48.419 9.913 46.12 C 12.202 43.822 15.324 42.529 18.571 42.519 C 19.002 42.529 19.442 42.558 19.873 42.596 C 19.883 42.605 19.902 42.605 19.912 42.605 L 20.285 42.634 L 20.467 42.644 C 20.505 42.653 20.544 42.653 20.582 42.653 C 21.253 42.653 21.904 42.443 22.45 42.05 C 22.996 41.657 23.398 41.092 23.599 40.46 C 24.911 36.39 27.487 32.836 30.945 30.327 C 34.422 27.808 38.597 26.458 42.879 26.467 C 42.879 26.467 42.879 26.467 42.879 26.467 Z " fill-rule="evenodd" fill="rgb(0,0,0)"/><path d=" M 52.708 55.007 L 50.31 54.056 C 50.848 52.051 50.765 50.004 50.207 48.123 L 52.584 47.09 C 53.246 46.8 53.535 46.035 53.246 45.394 C 53.11 45.081 52.855 44.834 52.536 44.71 C 52.218 44.586 51.863 44.594 51.551 44.733 L 49.173 45.766 C 48.162 44.028 46.688 42.604 44.915 41.653 L 45.866 39.255 C 46.129 38.593 45.805 37.843 45.142 37.58 C 44.48 37.318 43.731 37.642 43.468 38.304 L 42.517 40.702 C 40.512 40.164 38.465 40.247 36.584 40.805 L 35.551 38.428 C 35.415 38.114 35.16 37.868 34.841 37.743 C 34.523 37.619 34.168 37.627 33.856 37.766 C 33.542 37.902 33.295 38.157 33.171 38.476 C 33.047 38.794 33.055 39.149 33.194 39.462 L 34.228 41.839 C 32.489 42.851 31.065 44.325 30.114 46.097 L 27.716 45.146 C 27.054 44.884 26.304 45.208 26.042 45.87 C 25.779 46.532 26.103 47.282 26.765 47.544 L 29.163 48.495 C 28.626 50.5 28.708 52.547 29.266 54.428 L 26.889 55.462 C 26.575 55.597 26.329 55.853 26.204 56.171 C 26.08 56.49 26.089 56.844 26.228 57.157 C 26.362 57.472 26.617 57.719 26.936 57.844 C 27.255 57.968 27.611 57.959 27.923 57.818 L 30.3 56.785 C 31.292 58.48 32.739 59.927 34.558 60.898 L 33.607 63.296 C 33.345 63.959 33.669 64.708 34.331 64.971 C 34.993 65.233 35.743 64.909 36.005 64.247 L 36.956 61.849 C 38.962 62.387 41.008 62.304 42.889 61.746 L 43.923 64.123 C 44.057 64.438 44.312 64.686 44.631 64.81 C 44.95 64.935 45.306 64.926 45.618 64.785 C 46.279 64.495 46.569 63.73 46.279 63.09 L 45.246 60.712 C 46.941 59.72 48.388 58.273 49.36 56.454 L 51.757 57.405 C 52.42 57.667 53.169 57.343 53.432 56.681 C 53.694 56.019 53.371 55.269 52.708 55.007 L 52.708 55.007 Z  M 37.328 57.322 C 34 55.999 32.346 52.237 33.669 48.909 C 34.299 47.307 35.539 46.021 37.118 45.335 C 38.696 44.649 40.482 44.618 42.083 45.25 C 43.685 45.879 44.97 47.12 45.657 48.698 C 46.343 50.276 46.374 52.062 45.742 53.663 C 45.114 55.266 43.874 56.554 42.295 57.24 C 40.716 57.927 38.929 57.956 37.328 57.322 L 37.328 57.322 Z " fill="rgb(0,0,0)"/><path d=" M 70.135 58.624 L 68.543 58.004 C 68.895 56.681 68.853 55.338 68.481 54.097 L 70.052 53.415 C 70.486 53.229 70.672 52.733 70.486 52.299 C 70.3 51.865 69.804 51.679 69.37 51.865 L 67.799 52.547 C 67.128 51.404 66.155 50.467 64.988 49.839 L 65.608 48.247 C 65.773 47.813 65.566 47.317 65.132 47.152 C 64.698 46.986 64.202 47.193 64.037 47.627 L 63.416 49.219 C 62.093 48.867 60.75 48.909 59.509 49.281 L 58.827 47.71 C 58.641 47.276 58.145 47.09 57.711 47.276 C 57.277 47.462 57.091 47.958 57.277 48.392 L 57.959 49.963 C 56.816 50.634 55.879 51.607 55.251 52.774 L 53.659 52.154 C 53.225 51.989 52.729 52.195 52.564 52.63 C 52.398 53.064 52.605 53.56 53.039 53.725 L 54.631 54.345 C 54.279 55.668 54.321 57.012 54.693 58.252 L 53.122 58.935 C 52.688 59.121 52.502 59.617 52.688 60.051 C 52.791 60.258 52.956 60.423 53.163 60.506 C 53.37 60.588 53.597 60.588 53.804 60.485 L 55.375 59.803 C 56.046 60.946 57.019 61.883 58.186 62.511 L 57.566 64.103 C 57.401 64.537 57.608 65.033 58.042 65.198 C 58.476 65.364 58.972 65.157 59.137 64.723 L 59.758 63.131 C 61.081 63.482 62.424 63.441 63.665 63.069 L 64.347 64.64 C 64.45 64.847 64.615 65.012 64.822 65.095 C 65.029 65.177 65.256 65.177 65.463 65.074 C 65.897 64.888 66.083 64.392 65.897 63.958 L 65.215 62.387 C 66.358 61.715 67.295 60.743 67.923 59.575 L 69.515 60.196 C 69.949 60.361 70.445 60.154 70.61 59.72 C 70.776 59.286 70.569 58.79 70.135 58.624 L 70.135 58.624 Z  M 60.77 58.252 C 59.613 57.798 59.055 56.495 59.509 55.358 C 59.964 54.201 61.267 53.643 62.404 54.097 C 63.561 54.552 64.119 55.854 63.665 56.991 C 63.21 58.128 61.907 58.707 60.77 58.252 Z " fill="rgb(0,0,0)"/></g></g></svg>